<?xml version="1.0" encoding="utf-8"?>
<!-- Generator: Adobe Illustrator 16.2.1, SVG Export Plug-In . SVG Version: 6.00 Build 0)  -->
<!DOCTYPE svg PUBLIC "-//W3C//DTD SVG 1.1//EN" "http://www.w3.org/Graphics/SVG/1.1/DTD/svg11.dtd">
<svg version="1.1" id="Capa_1" xmlns="http://www.w3.org/2000/svg" xmlns:xlink="http://www.w3.org/1999/xlink" x="0px" y="0px"
	 width="212.6px" height="212.6px" viewBox="0 0 212.6 212.6" enable-background="new 0 0 212.6 212.6" xml:space="preserve">
<g id="Search">
	<path fill="#FD6E18" d="M207.396,182.271l-46.186-46.185c-0.246-0.246-0.533-0.417-0.79-0.646
		c9.088-13.786,14.392-30.288,14.392-48.033C174.812,39.133,135.679,0,87.406,0C39.133,0,0,39.133,0,87.406
		c0,48.271,39.132,87.405,87.405,87.405c17.747,0,34.248-5.304,48.033-14.392c0.229,0.256,0.398,0.544,0.645,0.789l46.188,46.187
		c6.938,6.938,18.186,6.938,25.125,0C214.333,200.458,214.333,189.209,207.396,182.271z M87.406,144.511
		c-31.539,0-57.106-25.566-57.106-57.104C30.3,55.867,55.868,30.3,87.406,30.3c31.538,0,57.105,25.567,57.105,57.106
		C144.511,118.945,118.943,144.511,87.406,144.511z"/>
</g>
</svg>
