<?xml version="1.0" encoding="utf-8"?>
<!-- Generator: Adobe Illustrator 16.2.1, SVG Export Plug-In . SVG Version: 6.00 Build 0)  -->
<!DOCTYPE svg PUBLIC "-//W3C//DTD SVG 1.1//EN" "http://www.w3.org/Graphics/SVG/1.1/DTD/svg11.dtd">
<svg version="1.1" id="Ebene_1" xmlns="http://www.w3.org/2000/svg" xmlns:xlink="http://www.w3.org/1999/xlink" x="0px" y="0px"
	 width="500px" height="500px" viewBox="0 0 500 500" enable-background="new 0 0 500 500" xml:space="preserve">
<rect x="18.289" y="19.167" fill="none" width="463.422" height="153.901"/>
<text transform="matrix(1 0 0 1 18.2886 52.1665)"><tspan x="0" y="0" fill="#010202" font-family="'Roboto-Regular'" font-size="44">Major Lazer </tspan><tspan x="242.237" y="0" fill="#010202" font-family="'Roboto-Light'" font-size="44">kommt in </tspan><tspan x="0" y="52.8" fill="#010202" font-family="'Roboto-Light'" font-size="44">die Columbiahalle. Hör </tspan><tspan x="0" y="105.6" fill="#010202" font-family="'Roboto-Light'" font-size="44">die seine Musik an:</tspan></text>
<image overflow="visible" width="222" height="222" xlink:href="26CE8DE592B58487.jpg"  transform="matrix(1 0 0 1 18.2886 258.834)">
</image>
<image overflow="visible" width="339" height="340" xlink:href="../Bildschirmfoto 2015-07-01 um 22.18.52.png"  transform="matrix(0.6529 0 0 0.6529 18.2891 258.834)">
</image>
<g>
	<g id="_x33_56._Play">
		<g>
			<path fill="#FFFFFF" stroke="#000000" stroke-width="0.75" stroke-miterlimit="10" d="M174.679,343.625
				c-14.474-25.068-46.531-33.658-71.598-19.182c-25.069,14.471-33.659,46.527-19.183,71.596
				c14.472,25.068,46.528,33.66,71.595,19.186C180.562,400.748,189.156,368.693,174.679,343.625z M150.253,406.143
				c-20.053,11.582-45.7,4.709-57.277-15.348c-11.581-20.053-4.707-45.699,15.347-57.275c20.054-11.58,45.699-4.707,57.278,15.348
				C177.18,368.922,170.307,394.564,150.253,406.143z M148.157,367.703l-27.446-16.008c-2.501-1.461-4.518-0.293-4.504,2.6
				l0.14,31.773c0.013,2.893,2.055,4.068,4.563,2.621l27.235-15.725C150.652,371.52,150.657,369.162,148.157,367.703z"/>
		</g>
	</g>
</g>
<image overflow="visible" width="1600" height="912" xlink:href="../loci/Soundcloud_logo-8.png"  transform="matrix(0.0692 0 0 0.0644 371 422.2549)">
</image>
</svg>
